# xmcd
#
# Track frame offsets: 
#        150
#        4555
#        28845
#        60900
#        92927
#        113710
#        133745
#        155452
#        186030
#        219130
#        245180
#        269667
#        304172
#
# Disc length: 4366 seconds
#
# Revision: 15
# Processed by: cddbd v1.5.1PL0 Copyright (c) Steve Scherf et al.
# Submitted via: ExactAudioCopy v0.95a5
#
DISCID=b0110c0d
DTITLE=KOTOKO - ? -hane-
DYEAR=2004
DGENRE=J-Pop
TTITLE0=Introduction
TTITLE1=Asura
TTITLE2=???
TTITLE3=???
TTITLE4=Gratitude ???????????
TTITLE5=??
TTITLE6=???
TTITLE7=?????
TTITLE8=??????
TTITLE9=Lament
TTITLE10=???
TTITLE11=?
TTITLE12=???? - SORMA No.3 Re-mix -
EXTD=YEAR: 2004
EXTT0=
EXTT1=
EXTT2=
EXTT3=
EXTT4=
EXTT5=
EXTT6=
EXTT7=
EXTT8=
EXTT9=
EXTT10=
EXTT11=
EXTT12=
PLAYORDER=
